<?xml version="1.0" standalone="no"?>
<!DOCTYPE svg PUBLIC "-//W3C//DTD SVG 20010904//EN"
 "http://www.w3.org/TR/2001/REC-SVG-20010904/DTD/svg10.dtd">
<svg version="1.0" xmlns="http://www.w3.org/2000/svg"
 width="979.000000pt" height="1565.000000pt" viewBox="0 0 979.000000 1565.000000"
 preserveAspectRatio="xMidYMid meet">

<g transform="translate(0.000000,1565.000000) scale(0.100000,-0.100000)"
fill="#000000" stroke="none">
<path d="M0 7831 c0 -7121 1 -7819 16 -7825 21 -8 9737 -8 9758 0 15 6 16 704
16 7825 l0 7819 -4895 0 -4895 0 0 -7819z m4933 2928 c63 -32 75 -102 28 -150
l-29 -29 29 -29 c39 -40 40 -91 1 -130 l-27 -28 27 -25 c50 -46 30 -126 -36
-148 -63 -20 -116 22 -116 91 0 29 7 43 28 60 l27 23 -27 27 c-39 39 -39 101
0 137 l27 25 -27 28 c-39 39 -38 90 1 130 31 31 59 36 94 18z m-931 -309 c30
-31 35 -64 14 -111 -6 -13 -2 -16 16 -12 37 6 86 -31 93 -70 4 -20 2 -44 -4
-55 -16 -30 -14 -32 20 -32 43 0 69 -16 85 -55 39 -93 -76 -167 -148 -95 -30
31 -35 64 -14 110 5 12 -2 15 -30 16 -56 1 -88 42 -82 106 5 46 4 48 -21 48
-35 0 -67 23 -78 57 -32 94 79 163 149 93z m1922 4 c56 -56 17 -154 -61 -154
-30 0 -33 -2 -23 -19 5 -11 10 -35 10 -54 0 -44 -46 -87 -93 -87 -24 0 -28 -3
-19 -12 23 -23 14 -77 -17 -109 -39 -38 -88 -40 -125 -3 -57 57 -20 154 59
154 32 0 35 2 25 19 -30 58 6 127 71 137 29 5 37 10 30 17 -6 6 -11 27 -11 48
0 81 96 121 154 63z m-887 -409 c39 -3 113 -17 164 -31 390 -104 663 -384 766
-784 37 -144 43 -395 13 -540 -40 -196 -103 -326 -301 -621 -159 -236 -209
-347 -209 -472 -1 -96 -74 -185 -204 -246 -193 -91 -381 -107 -600 -51 -207
54 -336 165 -336 291 -1 129 -49 236 -231 507 -129 193 -174 272 -223 392
-124 303 -105 685 47 985 144 286 413 490 730 555 76 15 221 28 272 24 22 -2
72 -6 112 -9z m-1714 -336 c26 -12 57 -57 57 -84 0 -15 1 -15 16 -1 9 9 32 16
55 16 47 0 89 -35 89 -75 0 -29 7 -31 34 -10 32 24 74 18 107 -14 35 -35 39
-86 9 -123 -49 -63 -160 -27 -160 52 0 20 -1 20 -22 6 -50 -36 -130 -6 -143
53 l-6 29 -39 -15 c-51 -20 -92 -5 -115 43 -20 42 -12 77 27 109 32 27 54 31
91 14z m3248 -18 c37 -37 38 -79 3 -120 -28 -33 -75 -42 -115 -21 -15 9 -19 7
-19 -6 0 -23 -64 -84 -89 -84 -12 0 -35 7 -51 15 -29 15 -30 15 -30 -6 0 -11
-13 -34 -29 -50 -52 -52 -124 -34 -151 37 -14 36 -3 70 32 99 34 29 57 31 98
10 29 -15 30 -15 30 8 0 59 86 97 137 62 20 -14 22 -13 33 20 23 70 99 88 151
36z m-3016 -925 c38 -16 55 -42 55 -83 -1 -80 -110 -115 -162 -52 -10 12 -18
17 -18 11 0 -6 -12 -24 -26 -41 -21 -26 -33 -31 -68 -31 -30 0 -48 6 -61 20
-21 23 -35 26 -35 7 0 -8 -11 -24 -25 -37 -50 -47 -135 -18 -150 51 -11 48 35
108 83 109 28 0 82 -27 82 -40 0 -6 5 -10 10 -10 6 0 10 6 10 14 0 23 59 66
90 66 16 0 42 -11 59 -26 21 -18 31 -21 31 -12 0 23 51 64 83 67 4 1 23 -5 42
-13z m2759 4 c14 -5 35 -24 45 -41 18 -30 20 -30 30 -11 27 52 123 43 152 -14
l15 -32 22 23 c46 47 122 32 148 -30 12 -30 12 -39 0 -69 -20 -48 -66 -71
-111 -56 -20 7 -42 24 -52 40 l-17 29 -24 -20 c-35 -27 -97 -25 -126 4 -13 13
-25 30 -28 37 -4 12 -8 12 -23 -3 -62 -63 -155 -25 -155 63 0 64 62 104 124
80z m-2387 -747 c24 -30 29 -72 13 -104 -16 -29 -67 -51 -101 -44 -28 6 -29 6
-29 -33 0 -33 -6 -45 -32 -67 -26 -22 -39 -26 -69 -22 -32 4 -36 2 -32 -14 13
-48 -42 -109 -99 -109 -36 0 -78 40 -84 81 -5 29 -1 41 22 68 25 30 31 33 73
29 l46 -5 -3 37 c-6 57 32 95 92 95 46 0 46 0 46 35 1 85 103 120 157 53z
m2078 11 c17 -18 25 -39 25 -63 0 -37 0 -37 40 -33 34 3 44 -1 71 -27 26 -26
30 -38 27 -67 -4 -34 -3 -35 25 -28 68 15 128 -47 107 -111 -23 -69 -100 -87
-152 -35 -24 25 -29 37 -26 65 l4 35 -37 -6 c-21 -4 -46 -1 -59 6 -27 14 -51
69 -43 99 5 20 3 21 -34 15 -85 -13 -139 90 -78 151 35 36 97 35 130 -1z
m-1491 -773 c111 -61 192 -82 335 -88 184 -8 318 20 442 94 66 40 98 39 125
-2 19 -30 13 -66 -17 -94 -36 -33 -150 -88 -229 -111 -96 -28 -320 -38 -441
-20 -189 27 -369 121 -369 191 0 24 43 69 66 69 9 0 49 -18 88 -39z m13 -251
c122 -63 181 -74 378 -74 198 0 255 11 382 76 l83 42 27 -20 c22 -17 28 -29
28 -60 0 -33 -5 -42 -40 -66 -22 -15 -76 -42 -121 -59 l-81 -31 -13 -51 c-10
-40 -25 -64 -69 -108 -89 -88 -184 -110 -297 -68 -72 27 -135 89 -158 155 -27
74 -28 76 -82 94 -59 19 -164 76 -181 99 -30 39 0 111 46 111 11 0 55 -18 98
-40z m-3987 -1591 l0 -202 23 34 c32 47 117 96 182 104 112 14 228 -47 277
-145 39 -78 48 -154 48 -407 l0 -223 -120 0 -120 0 0 248 c0 228 -2 249 -20
279 -22 37 -52 48 -115 41 -51 -6 -89 -33 -127 -90 l-28 -41 0 -219 0 -218
-115 0 -115 0 0 520 0 520 115 0 115 0 0 -201z m1108 -74 c28 -9 64 -27 81
-41 l30 -25 3 33 3 33 115 0 115 0 3 -382 2 -383 -120 0 -120 0 0 30 0 30 -40
-29 c-151 -110 -403 -25 -497 167 -26 53 -28 65 -28 182 0 118 2 128 29 184
79 162 263 249 424 201z m905 -15 c52 -24 134 -108 143 -147 4 -13 5 -26 3
-27 -2 -2 -46 -15 -96 -29 l-93 -26 -17 30 c-28 47 -93 53 -120 12 -14 -20
-13 -24 9 -45 12 -13 65 -38 117 -56 165 -58 222 -110 229 -212 2 -32 -1 -74
-8 -94 -61 -185 -379 -237 -533 -88 -36 35 -77 99 -77 121 0 10 143 61 172 61
9 0 20 -9 23 -21 17 -53 135 -79 175 -39 41 41 21 64 -90 105 -135 50 -218
112 -241 183 -19 58 -7 146 27 194 30 42 109 92 164 102 56 10 167 -2 213 -24z
m750 16 c25 -7 59 -23 75 -35 39 -27 42 -27 42 9 l0 30 115 0 115 0 0 -385 0
-385 -115 0 -115 0 0 32 c0 29 -1 30 -17 16 -117 -103 -335 -79 -453 48 -140
152 -144 405 -8 560 86 98 242 146 361 110z m1088 -13 c59 -26 107 -76 138
-143 26 -54 26 -58 29 -332 l3 -278 -115 0 -115 0 -3 256 -3 256 -33 29 c-26
23 -41 29 -80 29 -58 0 -101 -25 -142 -81 l-30 -42 0 -224 0 -223 -120 0 -120
0 2 383 3 382 115 0 115 0 3 -57 3 -58 31 36 c30 34 85 68 138 85 38 13 132 3
181 -18z m844 0 c48 -17 175 -125 175 -149 0 -5 -39 -29 -86 -52 -78 -39 -88
-42 -103 -28 -45 41 -139 58 -198 35 -94 -35 -140 -164 -94 -265 46 -101 179
-134 276 -69 l35 25 85 -40 c47 -21 85 -43 85 -49 0 -11 -45 -68 -75 -93 -40
-36 -122 -68 -190 -77 -138 -17 -260 23 -350 113 -189 190 -132 516 111 631
29 14 70 29 91 35 54 13 179 5 238 -17z m780 13 c116 -30 215 -109 269 -211
30 -57 31 -65 31 -175 0 -105 -2 -120 -27 -170 -76 -155 -263 -250 -434 -222
-181 30 -309 157 -334 331 -25 175 56 333 210 411 100 50 190 62 285 36z
m1893 -103 l3 -113 -58 0 c-106 -1 -189 -50 -233 -137 -23 -45 -25 -59 -28
-230 l-3 -183 -120 0 -119 0 2 383 3 382 115 0 115 0 3 -85 3 -84 29 50 c49
86 138 136 235 131 l50 -2 3 -112z m489 102 c33 -10 70 -32 103 -61 52 -47 97
-118 81 -128 -5 -3 -50 -17 -100 -30 l-91 -25 -15 28 c-16 32 -33 41 -74 41
-33 0 -51 -16 -51 -46 0 -30 11 -37 137 -84 121 -46 186 -91 209 -147 17 -39
18 -130 3 -170 -16 -44 -79 -103 -139 -131 -47 -22 -69 -26 -155 -26 -84 -1
-108 3 -150 22 -77 35 -138 101 -159 169 -6 20 0 24 74 47 100 32 103 32 120
0 28 -51 120 -72 168 -38 47 33 20 72 -71 103 -132 46 -224 111 -253 178 -18
41 -18 124 -1 166 16 37 85 103 125 119 77 31 163 35 239 13z m831 -3 c107
-34 188 -106 233 -208 16 -36 23 -77 27 -151 l5 -103 -267 0 c-254 0 -266 -1
-266 -19 0 -26 61 -78 107 -90 57 -16 131 -13 193 9 l55 19 60 -57 c33 -31 61
-58 64 -59 12 -7 -39 -47 -94 -74 -172 -84 -393 -52 -521 76 -62 62 -88 110
-104 193 -25 122 7 250 84 337 107 122 277 172 424 127z m-2548 -252 c6 -288
9 -303 75 -316 75 -14 131 13 186 89 l29 40 0 224 0 223 115 0 115 0 0 -385 0
-385 -115 0 -115 0 0 57 0 57 -42 -41 c-59 -58 -123 -84 -204 -84 -146 0 -248
94 -274 252 -11 71 -14 512 -3 523 4 3 57 5 117 4 l111 -3 5 -255z"/>
<path d="M4672 9764 c-158 -46 -296 -138 -403 -267 -53 -63 -62 -102 -31 -130
38 -35 74 -22 135 47 104 118 218 189 360 227 38 9 77 25 88 35 28 25 24 68
-7 93 -33 26 -39 26 -142 -5z"/>
<path d="M4472 9066 c-394 -124 -412 -132 -412 -181 0 -36 28 -51 202 -106
l167 -52 3 -205 3 -204 34 -29 c46 -38 154 -93 221 -113 190 -57 451 -8 585
107 l40 35 5 202 5 202 60 19 c33 10 63 19 68 19 4 0 7 -39 7 -87 0 -87 0 -87
-37 -125 l-37 -38 14 -42 c28 -78 128 -114 201 -71 24 14 69 83 69 104 0 3
-16 22 -35 43 l-35 39 0 113 c0 102 2 113 19 119 63 20 92 84 54 117 -10 9
-157 59 -328 113 -170 53 -344 108 -385 121 -41 13 -81 24 -90 23 -8 -1 -188
-56 -398 -123z m688 -106 c113 -35 207 -65 209 -67 9 -7 -16 -16 -248 -88
l-241 -75 -58 15 c-82 21 -433 133 -440 139 -3 4 -3 8 -1 10 2 2 114 37 249
78 231 71 247 74 285 63 22 -6 132 -40 245 -75z m-427 -330 c70 -22 138 -40
150 -40 12 1 83 21 157 45 l135 43 5 -121 c7 -160 5 -172 -34 -195 -136 -81
-340 -88 -493 -17 l-73 34 0 150 c0 116 3 149 13 146 6 -2 70 -23 140 -45z"/>
<path d="M4780 6783 c0 -18 56 -61 90 -68 42 -9 85 2 120 32 51 43 41 48 -90
48 -84 0 -120 -3 -120 -12z"/>
<path d="M1515 5134 c-63 -32 -89 -70 -100 -145 -13 -89 25 -167 99 -200 82
-37 184 -11 227 58 34 54 37 155 7 213 -41 80 -154 116 -233 74z"/>
<path d="M3175 5136 c-66 -30 -105 -94 -105 -172 0 -119 84 -201 197 -192 32
3 65 13 81 25 108 80 108 246 0 326 -35 26 -130 33 -173 13z"/>
<path d="M5850 5139 c-81 -34 -126 -141 -101 -236 39 -146 233 -180 316 -55
58 88 33 220 -50 272 -43 26 -125 36 -165 19z"/>
<path d="M9044 5141 c-38 -17 -84 -62 -84 -82 0 -5 70 -9 155 -9 106 0 155 3
155 11 0 22 -67 77 -105 88 -54 15 -73 14 -121 -8z"/>
</g>
</svg>
